Amaranth-Bold.ufo
<glyph name="ampersand" format="1">
  <advance width="603"/>
  <unicode hex="0026"/>
  <outline>
    <contour>
      <point x="483" y="530" type="line"/>
      <point x="428" y="588"/>
      <point x="370" y="602"/>
      <point x="303" y="602" type="curve" smooth="yes"/>
      <point x="183" y="602"/>
      <point x="121" y="535"/>
      <point x="121" y="448" type="curve" smooth="yes"/>
      <point x="121" y="419"/>
      <point x="129" y="390"/>
      <point x="145" y="360" type="curve"/>
      <point x="92" y="325"/>
      <point x="35" y="264"/>
      <point x="35" y="172" type="curve" smooth="yes"/>
      <point x="35" y="68"/>
      <point x="118" y="-6"/>
      <point x="239" y="-6" type="curve" smooth="yes"/>
      <point x="323" y="-6"/>
      <point x="386" y="24"/>
      <point x="436" y="69" type="curve"/>
      <point x="526" y="-5" type="line"/>
      <point x="605" y="99" type="line"/>
      <point x="519" y="173" type="line"/>
      <point x="540" y="207"/>
      <point x="555" y="241"/>
      <point x="569" y="272" type="curve"/>
      <point x="453" y="318" type="line"/>
      <point x="446" y="298"/>
      <point x="436" y="276"/>
      <point x="424" y="254" type="curve"/>
      <point x="339" y="328"/>
      <point x="285" y="387"/>
      <point x="285" y="448" type="curve" smooth="yes"/>
      <point x="285" y="472"/>
      <point x="297" y="487"/>
      <point x="323" y="487" type="curve" smooth="yes"/>
      <point x="354" y="487"/>
      <point x="382" y="461"/>
      <point x="402" y="442" type="curve"/>
    </contour>
    <contour>
      <point x="342" y="146" type="curve"/>
      <point x="320" y="129"/>
      <point x="295" y="118"/>
      <point x="269" y="118" type="curve" smooth="yes"/>
      <point x="217" y="118"/>
      <point x="190" y="148"/>
      <point x="190" y="189" type="curve" smooth="yes"/>
      <point x="190" y="221"/>
      <point x="201" y="246"/>
      <point x="215" y="264" type="curve"/>
      <point x="250" y="225"/>
      <point x="294" y="186"/>
    </contour>
  </outline>
</glyph>
<glyph name="quotesingle" format="1">
  <advance width="233"/>
  <unicode hex="0027"/>
  <outline>
    <contour>
      <point x="50" y="677" type="line"/>
      <point x="61" y="420" type="line"/>
      <point x="172" y="420" type="line"/>
      <point x="183" y="677" type="line"/>
    </contour>
  </outline>
</glyph>
<glyph name="two" format="1">
  <advance width="505"/>
  <unicode hex="0032"/>
  <outline>
    <contour>
      <point x="86" y="465" type="line"/>
      <point x="148" y="494"/>
      <point x="191" y="513"/>
      <point x="227" y="513" type="curve" smooth="yes"/>
      <point x="264" y="513"/>
      <point x="286" y="485"/>
      <point x="286" y="450" type="curve" smooth="yes"/>
      <point x="286" y="399"/>
      <point x="251" y="345"/>
      <point x="151" y="239" type="curve"/>
      <point x="109" y="179"/>
      <point x="51" y="101"/>
      <point x="9" y="42" type="curve"/>
      <point x="27" y="0" type="line"/>
      <point x="472" y="0" type="line"/>
      <point x="472" y="135" type="line"/>
      <point x="255" y="135" type="line"/>
      <point x="315" y="198" type="line" smooth="yes"/>
      <point x="410" y="298"/>
      <point x="455" y="378"/>
      <point x="455" y="464" type="curve" smooth="yes"/>
      <point x="455" y="594"/>
      <point x="368" y="645"/>
      <point x="256" y="645" type="curve" smooth="yes"/>
      <point x="176" y="645"/>
      <point x="84" y="608"/>
      <point x="28" y="582" type="curve"/>
    </contour>
  </outline>
</glyph>
<glyph name="five" format="1">
  <advance width="523"/>
  <unicode hex="0035"/>
  <outline>
    <contour>
      <point x="131" y="259" type="line"/>
      <point x="148" y="266"/>
      <point x="180" y="279"/>
      <point x="228" y="279" type="curve" smooth="yes"/>
      <point x="279" y="279"/>
      <point x="312" y="256"/>
      <point x="312" y="211" type="curve" smooth="yes"/>
      <point x="312" y="152"/>
      <point x="279" y="122"/>
      <point x="234" y="122" type="curve" smooth="yes"/>
      <point x="188" y="122"/>
      <point x="128" y="151"/>
      <point x="89" y="170" type="curve"/>
      <point x="37" y="49" type="line"/>
      <point x="100" y="20"/>
      <point x="191" y="-9"/>
      <point x="253" y="-9" type="curve" smooth="yes"/>
      <point x="423" y="-9"/>
      <point x="483" y="102"/>
      <point x="483" y="204" type="curve" smooth="yes"/>
      <point x="483" y="311"/>
      <point x="422" y="411"/>
      <point x="289" y="411" type="curve" smooth="yes"/>
      <point x="258" y="411"/>
      <point x="236" y="406"/>
      <point x="219" y="402" type="curve"/>
      <point x="233" y="505" type="line"/>
      <point x="434" y="505" type="line"/>
      <point x="458" y="640" type="line"/>
      <point x="97" y="640" type="line"/>
      <point x="61" y="311" type="line"/>
    </contour>
  </outline>
</glyph>
<glyph name="colon" format="1">
  <advance width="302"/>
  <unicode hex="003A"/>
  <outline>
    <contour>
      <point x="157" y="169" type="curve" smooth="yes"/>
      <point x="99" y="169"/>
      <point x="67" y="129"/>
      <point x="67" y="77" type="curve" smooth="yes"/>
      <point x="67" y="30"/>
      <point x="99" y="-10"/>
      <point x="155" y="-10" type="curve" smooth="yes"/>
      <point x="213" y="-10"/>
      <point x="244" y="30"/>
      <point x="244" y="81" type="curve" smooth="yes"/>
      <point x="244" y="132"/>
      <point x="213" y="169"/>
    </contour>
    <contour>
      <point x="157" y="512" type="curve" smooth="yes"/>
      <point x="99" y="512"/>
      <point x="67" y="471"/>
      <point x="67" y="420" type="curve" smooth="yes"/>
      <point x="67" y="372"/>
      <point x="99" y="332"/>
      <point x="155" y="332" type="curve" smooth="yes"/>
      <point x="213" y="332"/>
      <point x="244" y="372"/>
      <point x="244" y="424" type="curve" smooth="yes"/>
      <point x="244" y="475"/>
      <point x="213" y="512"/>
    </contour>
  </outline>
</glyph>
<glyph name="equal" format="1">
  <advance width="495"/>
  <unicode hex="003D"/>
  <outline>
    <contour>
      <point x="62" y="329" type="line"/>
      <point x="433" y="329" type="line"/>
      <point x="433" y="445" type="line"/>
      <point x="62" y="445" type="line"/>
    </contour>
    <contour>
      <point x="62" y="155" type="line"/>
      <point x="433" y="155" type="line"/>
      <point x="433" y="271" type="line"/>
      <point x="62" y="271" type="line"/>
    </contour>
  </outline>
</glyph>
<glyph name="greater" format="1">
  <advance width="448"/>
  <unicode hex="003E"/>
  <outline>
    <contour>
      <point x="85" y="75" type="line"/>
      <point x="426" y="241" type="line"/>
      <point x="426" y="360" type="line"/>
      <point x="87" y="525" type="line"/>
      <point x="34" y="402" type="line"/>
      <point x="185" y="333" type="line"/>
      <point x="217" y="317"/>
      <point x="257" y="303"/>
      <point x="264" y="301" type="curve"/>
      <point x="244" y="294"/>
      <point x="210" y="280"/>
      <point x="185" y="269" type="curve" smooth="yes"/>
      <point x="32" y="197" type="line"/>
    </contour>
  </outline>
</glyph>
<glyph name="A" format="1">
  <advance width="649"/>
  <unicode hex="0041"/>
  <outline>
    <contour>
      <point x="301" y="677" type="move" name="topUC"/>
    </contour>
    <contour>
      <point x="-1" y="0" type="line"/>
      <point x="163" y="0" type="line"/>
      <point x="215" y="163" type="line"/>
      <point x="434" y="163" type="line"/>
      <point x="484" y="0" type="line"/>
      <point x="651" y="0" type="line"/>
      <point x="403" y="677" type="line"/>
      <point x="256" y="677" type="line"/>
    </contour>
    <contour>
      <point x="253" y="285" type="line"/>
      <point x="280" y="362"/>
      <point x="310" y="457"/>
      <point x="325" y="508" type="curve"/>
      <point x="340" y="459"/>
      <point x="370" y="363"/>
      <point x="397" y="285" type="curve"/>
    </contour>
  </outline>
</glyph>
<glyph name="E" format="1">
  <advance width="524"/>
  <unicode hex="0045"/>
  <outline>
    <contour>
      <point x="284" y="677" type="move" name="topUC"/>
    </contour>
    <contour>
      <point x="62" y="0" type="line"/>
      <point x="507" y="0" type="line"/>
      <point x="507" y="121" type="line"/>
      <point x="227" y="121" type="line"/>
      <point x="227" y="292" type="line"/>
      <point x="429" y="292" type="line"/>
      <point x="448" y="411" type="line"/>
      <point x="227" y="411" type="line"/>
      <point x="227" y="556" type="line"/>
      <point x="493" y="556" type="line"/>
      <point x="493" y="677" type="line"/>
      <point x="62" y="677" type="line"/>
    </contour>
  </outline>
</glyph>
<glyph name="F" format="1">
  <advance width="501"/>
  <unicode hex="0046"/>
  <outline>
    <contour>
      <point x="62" y="0" type="line"/>
      <point x="227" y="0" type="line"/>
      <point x="227" y="283" type="line"/>
      <point x="430" y="283" type="line"/>
      <point x="450" y="402" type="line"/>
      <point x="227" y="402" type="line"/>
      <point x="227" y="557" type="line"/>
      <point x="493" y="557" type="line"/>
      <point x="493" y="677" type="line"/>
      <point x="62" y="677" type="line"/>
    </contour>
  </outline>
</glyph>
<glyph name="P" format="1">
  <advance width="544"/>
  <unicode hex="0050"/>
  <outline>
    <contour>
      <point x="62" y="0" type="line"/>
      <point x="227" y="0" type="line"/>
      <point x="227" y="259" type="line"/>
      <point x="257" y="259" type="line" smooth="yes"/>
      <point x="423" y="259"/>
      <point x="526" y="331"/>
      <point x="526" y="473" type="curve" smooth="yes"/>
      <point x="526" y="602"/>
      <point x="440" y="679"/>
      <point x="270" y="679" type="curve" smooth="yes"/>
      <point x="218" y="679"/>
      <point x="82" y="677"/>
      <point x="62" y="677" type="curve"/>
    </contour>
    <contour>
      <point x="227" y="568" type="line"/>
      <point x="235" y="569"/>
      <point x="247" y="570"/>
      <point x="264" y="570" type="curve" smooth="yes"/>
      <point x="327" y="569"/>
      <point x="353" y="521"/>
      <point x="353" y="465" type="curve" smooth="yes"/>
      <point x="353" y="399"/>
      <point x="314" y="368"/>
      <point x="269" y="368" type="curve" smooth="yes"/>
      <point x="227" y="368" type="line"/>
    </contour>
  </outline>
</glyph>
<glyph name="Q" format="1">
  <advance width="704"/>
  <unicode hex="0051"/>
  <outline>
    <contour>
      <point x="642" y="-37" type="line"/>
      <point x="585" y="-65"/>
      <point x="534" y="-91"/>
      <point x="475" y="-91" type="curve" smooth="yes"/>
      <point x="454" y="-91"/>
      <point x="434" y="-87"/>
      <point x="414" y="-77" type="curve"/>
      <point x="555" y="-30"/>
      <point x="660" y="115"/>
      <point x="660" y="343" type="curve" smooth="yes"/>
      <point x="660" y="554"/>
      <point x="554" y="686"/>
      <point x="354" y="686" type="curve" smooth="yes"/>
      <point x="151" y="686"/>
      <point x="35" y="537"/>
      <point x="35" y="335" type="curve" smooth="yes"/>
      <point x="35" y="188"/>
      <point x="114" y="57"/>
      <point x="281" y="47" type="curve"/>
      <point x="297" y="155" type="line"/>
      <point x="239" y="176"/>
      <point x="213" y="218"/>
      <point x="213" y="344" type="curve" smooth="yes"/>
      <point x="213" y="482"/>
      <point x="254" y="569"/>
      <point x="340" y="569" type="curve" smooth="yes"/>
      <point x="449" y="569"/>
      <point x="481" y="468"/>
      <point x="481" y="332" type="curve" smooth="yes"/>
      <point x="481" y="119"/>
      <point x="399" y="-6"/>
      <point x="269" y="-6" type="curve" smooth="yes"/>
      <point x="255" y="-6"/>
      <point x="235" y="-5"/>
      <point x="221" y="-2" type="curve"/>
      <point x="192" y="-91" type="line"/>
      <point x="290" y="-178"/>
      <point x="404" y="-214"/>
      <point x="488" y="-214" type="curve" smooth="yes"/>
      <point x="570" y="-214"/>
      <point x="633" y="-189"/>
      <point x="696" y="-147" type="curve"/>
    </contour>
  </outline>
</glyph>
<glyph name="R" format="1">
  <advance width="599"/>
  <unicode hex="0052"/>
  <outline>
    <contour>
      <point x="62" y="0" type="line"/>
      <point x="227" y="0" type="line"/>
      <point x="227" y="287" type="line"/>
      <point x="244" y="287" type="line" smooth="yes"/>
      <point x="313" y="287"/>
      <point x="335" y="187"/>
      <point x="421" y="0" type="curve"/>
      <point x="598" y="0" type="line"/>
      <point x="528" y="164"/>
      <point x="490" y="270"/>
      <point x="411" y="315" type="curve"/>
      <point x="481" y="346"/>
      <point x="526" y="400"/>
      <point x="526" y="485" type="curve" smooth="yes"/>
      <point x="526" y="612"/>
      <point x="440" y="679"/>
      <point x="270" y="679" type="curve" smooth="yes"/>
      <point x="226" y="679"/>
      <point x="85" y="677"/>
      <point x="62" y="677" type="curve"/>
    </contour>
    <contour>
      <point x="227" y="571" type="line"/>
      <point x="264" y="571" type="line" smooth="yes"/>
      <point x="332" y="571"/>
      <point x="353" y="529"/>
      <point x="353" y="479" type="curve" smooth="yes"/>
      <point x="353" y="418"/>
      <point x="316" y="390"/>
      <point x="269" y="390" type="curve" smooth="yes"/>
      <point x="227" y="390" type="line"/>
    </contour>
  </outline>
</glyph>
<glyph name="S" format="1">
  <advance width="526"/>
  <unicode hex="0053"/>
  <outline>
    <contour>
      <point x="267" y="686" type="curve" smooth="yes"/>
      <point x="363" y="686"/>
      <point x="447" y="652"/>
      <point x="492" y="621" type="curve"/>
      <point x="434" y="511" type="line"/>
      <point x="403" y="528"/>
      <point x="340" y="566"/>
      <point x="289" y="566" type="curve" smooth="yes"/>
      <point x="243" y="566"/>
      <point x="220" y="544"/>
      <point x="220" y="515" type="curve"/>
      <point x="223" y="471"/>
      <point x="254" y="446"/>
      <point x="339" y="410" type="curve" smooth="yes"/>
      <point x="446" y="365"/>
      <point x="498" y="317"/>
      <point x="498" y="215" type="curve" smooth="yes"/>
      <point x="498" y="92"/>
      <point x="406" y="-6"/>
      <point x="260" y="-6" type="curve" smooth="yes"/>
      <point x="156" y="-6"/>
      <point x="70" y="37"/>
      <point x="22" y="66" type="curve"/>
      <point x="76" y="184" type="line"/>
      <point x="95" y="171"/>
      <point x="186" y="115"/>
      <point x="239" y="115" type="curve" smooth="yes"/>
      <point x="295" y="115"/>
      <point x="320" y="142"/>
      <point x="320" y="190" type="curve" smooth="yes"/>
      <point x="320" y="238"/>
      <point x="285" y="257"/>
      <point x="226" y="281" type="curve" smooth="yes"/>
      <point x="110" y="329"/>
      <point x="42" y="384"/>
      <point x="42" y="492" type="curve" smooth="yes"/>
      <point x="42" y="611"/>
      <point x="148" y="686"/>
    </contour>
  </outline>
</glyph>
<glyph name="W" format="1">
  <advance width="912"/>
  <unicode hex="0057"/>
  <outline>
    <contour>
      <point x="591" y="0" type="line"/>
      <point x="724" y="0" type="line"/>
      <point x="912" y="677" type="line"/>
      <point x="746" y="677" type="line"/>
      <point x="683" y="421" type="line" smooth="yes"/>
      <point x="664" y="345"/>
      <point x="654" y="278"/>
      <point x="648" y="230" type="curve"/>
      <point x="637" y="278"/>
      <point x="626" y="347"/>
      <point x="604" y="420" type="curve" smooth="yes"/>
      <point x="526" y="677" type="line"/>
      <point x="392" y="677" type="line"/>
      <point x="316" y="422" type="line" smooth="yes"/>
      <point x="298" y="361"/>
      <point x="282" y="283"/>
      <point x="271" y="234" type="curve"/>
      <point x="263" y="283"/>
      <point x="249" y="363"/>
      <point x="234" y="423" type="curve" smooth="yes"/>
      <point x="170" y="677" type="line"/>
      <point x="6" y="677" type="line"/>
      <point x="194" y="0" type="line"/>
      <point x="327" y="0" type="line"/>
      <point x="422" y="306" type="line" smooth="yes"/>
      <point x="437" y="356"/>
      <point x="451" y="436"/>
      <point x="457" y="463" type="curve"/>
      <point x="464" y="437"/>
      <point x="476" y="367"/>
      <point x="494" y="309" type="curve" smooth="yes"/>
    </contour>
  </outline>
</glyph>
<glyph name="X" format="1">
  <advance width="635"/>
  <unicode hex="0058"/>
  <outline>
    <contour>
      <point x="182" y="0" type="line"/>
      <point x="294" y="200" type="line"/>
      <point x="317" y="243" type="line"/>
      <point x="326" y="227"/>
      <point x="334" y="210"/>
      <point x="341" y="200" type="curve"/>
      <point x="453" y="0" type="line"/>
      <point x="635" y="0" type="line"/>
      <point x="425" y="354" type="line"/>
      <point x="616" y="677" type="line"/>
      <point x="436" y="677" type="line"/>
      <point x="340" y="505" type="line"/>
      <point x="333" y="494"/>
      <point x="326" y="479"/>
      <point x="317" y="464" type="curve"/>
      <point x="308" y="480"/>
      <point x="300" y="497"/>
      <point x="295" y="506" type="curve" smooth="yes"/>
      <point x="200" y="677" type="line"/>
      <point x="20" y="677" type="line"/>
      <point x="210" y="355" type="line"/>
      <point x="0" y="0" type="line"/>
    </contour>
  </outline>
</glyph>
<glyph name="Y" format="1">
  <advance width="589"/>
  <unicode hex="0059"/>
  <outline>
    <contour>
      <point x="275" y="677" type="move" name="topUC"/>
    </contour>
    <contour>
      <point x="209" y="0" type="line"/>
      <point x="373" y="0" type="line"/>
      <point x="373" y="251" type="line"/>
      <point x="589" y="677" type="line"/>
      <point x="417" y="677" type="line"/>
      <point x="294" y="418" type="line"/>
      <point x="174" y="677" type="line"/>
      <point x="0" y="677" type="line"/>
      <point x="209" y="260" type="line"/>
    </contour>
  </outline>
</glyph>
<glyph name="bracketright" format="1">
  <advance width="401"/>
  <unicode hex="005D"/>
  <outline>
    <contour>
      <point x="329" y="720" type="line"/>
      <point x="41" y="720" type="line"/>
      <point x="41" y="615" type="line"/>
      <point x="169" y="615" type="line"/>
      <point x="169" y="-81" type="line"/>
      <point x="41" y="-81" type="line"/>
      <point x="41" y="-186" type="line"/>
      <point x="329" y="-186" type="line"/>
    </contour>
  </outline>
</glyph>
<glyph name="grave" format="1">
  <advance width="492"/>
  <unicode hex="0060"/>
  <outline>
    <contour>
      <point x="264" y="506" type="move" name="_top"/>
    </contour>
    <contour>
      <point x="313" y="628" type="line"/>
      <point x="130" y="842" type="line"/>
      <point x="26" y="743" type="line"/>
      <point x="110" y="639"/>
      <point x="235" y="565"/>
      <point x="246" y="557" type="curve"/>
    </contour>
  </outline>
</glyph>
<glyph name="e" format="1">
  <advance width="479"/>
  <unicode hex="0065"/>
  <outline>
    <contour>
      <point x="257" y="506" type="move" name="top"/>
    </contour>
    <contour>
      <point x="27" y="237" type="curve" smooth="yes"/>
      <point x="27" y="90"/>
      <point x="92" y="-9"/>
      <point x="255" y="-9" type="curve" smooth="yes"/>
      <point x="361" y="-9"/>
      <point x="452" y="36"/>
      <point x="452" y="36" type="curve"/>
      <point x="422" y="140" type="line"/>
      <point x="422" y="140"/>
      <point x="338" y="108"/>
      <point x="280" y="108" type="curve" smooth="yes"/>
      <point x="230" y="108"/>
      <point x="207" y="135"/>
      <point x="198" y="175" type="curve"/>
      <point x="357" y="188"/>
      <point x="456" y="264"/>
      <point x="456" y="361" type="curve" smooth="yes"/>
      <point x="456" y="447"/>
      <point x="406" y="512"/>
      <point x="281" y="512" type="curve" smooth="yes"/>
      <point x="138" y="512"/>
      <point x="27" y="416"/>
    </contour>
    <contour>
      <point x="261" y="399" type="curve" smooth="yes"/>
      <point x="283" y="399"/>
      <point x="299" y="382"/>
      <point x="299" y="357" type="curve" smooth="yes"/>
      <point x="299" y="325"/>
      <point x="269" y="278"/>
      <point x="190" y="276" type="curve"/>
      <point x="192" y="333"/>
      <point x="210" y="399"/>
    </contour>
  </outline>
</glyph>
<glyph name="k" format="1">
  <advance width="537"/>
  <unicode hex="006B"/>
  <outline>
    <contour>
      <point x="57" y="698" type="line"/>
      <point x="57" y="0" type="line"/>
      <point x="215" y="0" type="line"/>
      <point x="215" y="310" type="line" smooth="yes"/>
      <point x="215" y="325"/>
      <point x="233" y="393"/>
      <point x="295" y="393" type="curve" smooth="yes"/>
      <point x="319" y="393"/>
      <point x="336" y="376"/>
      <point x="336" y="345" type="curve" smooth="yes"/>
      <point x="336" y="288"/>
      <point x="258" y="268"/>
      <point x="239" y="265" type="curve"/>
      <point x="240" y="250" type="line"/>
      <point x="253" y="180"/>
      <point x="290" y="98"/>
      <point x="348" y="0" type="curve"/>
      <point x="528" y="0" type="line"/>
      <point x="388" y="223" type="line"/>
      <point x="388" y="223"/>
      <point x="493" y="257"/>
      <point x="493" y="376" type="curve" smooth="yes"/>
      <point x="493" y="459"/>
      <point x="429" y="509"/>
      <point x="346" y="509" type="curve" smooth="yes"/>
      <point x="280" y="509"/>
      <point x="240" y="486"/>
      <point x="215" y="463" type="curve"/>
      <point x="215" y="725" type="line"/>
    </contour>
  </outline>
</glyph>
<glyph name="n" format="1">
  <advance width="557"/>
  <unicode hex="006E"/>
  <outline>
    <contour>
      <point x="319" y="506" type="move" name="top"/>
    </contour>
    <contour>
      <point x="505" y="0" type="line"/>
      <point x="505" y="335" type="line" smooth="yes"/>
      <point x="505" y="440"/>
      <point x="465" y="509"/>
      <point x="361" y="509" type="curve" smooth="yes"/>
      <point x="290" y="509"/>
      <point x="225" y="480"/>
      <point x="190" y="418" type="curve"/>
      <point x="176" y="477"/>
      <point x="144" y="509"/>
      <point x="144" y="509" type="curve"/>
      <point x="17" y="469" type="line"/>
      <point x="17" y="469"/>
      <point x="72" y="418"/>
      <point x="72" y="260" type="curve" smooth="yes"/>
      <point x="72" y="0" type="line"/>
      <point x="230" y="0" type="line"/>
      <point x="230" y="251" type="line" smooth="yes"/>
      <point x="230" y="338"/>
      <point x="269" y="390"/>
      <point x="306" y="390" type="curve" smooth="yes"/>
      <point x="337" y="390"/>
      <point x="346" y="358"/>
      <point x="346" y="312" type="curve" smooth="yes"/>
      <point x="346" y="0" type="line"/>
    </contour>
  </outline>
</glyph>
<glyph name="q" format="1">
  <advance width="534"/>
  <unicode hex="0071"/>
  <outline>
    <contour>
      <point x="477" y="480" type="line"/>
      <point x="477" y="480"/>
      <point x="361" y="509"/>
      <point x="278" y="509" type="curve" smooth="yes"/>
      <point x="129" y="509"/>
      <point x="27" y="396"/>
      <point x="27" y="243" type="curve" smooth="yes"/>
      <point x="27" y="93"/>
      <point x="89" y="-6"/>
      <point x="215" y="-6" type="curve" smooth="yes"/>
      <point x="261" y="-6"/>
      <point x="294" y="12"/>
      <point x="319" y="43" type="curve"/>
      <point x="319" y="-194" type="line"/>
      <point x="477" y="-221" type="line"/>
    </contour>
    <contour>
      <point x="246" y="110" type="curve" smooth="yes"/>
      <point x="198" y="110"/>
      <point x="195" y="179"/>
      <point x="195" y="253" type="curve" smooth="yes"/>
      <point x="195" y="334"/>
      <point x="213" y="393"/>
      <point x="278" y="393" type="curve" smooth="yes"/>
      <point x="290" y="393"/>
      <point x="310" y="389"/>
      <point x="319" y="385" type="curve"/>
      <point x="319" y="278" type="line" smooth="yes"/>
      <point x="319" y="190"/>
      <point x="289" y="110"/>
    </contour>
  </outline>
</glyph>
<glyph name="r" format="1">
  <advance width="398"/>
  <unicode hex="0072"/>
  <outline>
    <contour>
      <point x="307" y="358" type="curve" smooth="yes"/>
      <point x="329" y="358"/>
      <point x="345" y="352"/>
      <point x="354" y="347" type="curve"/>
      <point x="395" y="498" type="line"/>
      <point x="380" y="503"/>
      <point x="358" y="509"/>
      <point x="330" y="509" type="curve" smooth="yes"/>
      <point x="268" y="509"/>
      <point x="222" y="483"/>
      <point x="189" y="419" type="curve"/>
      <point x="175" y="478"/>
      <point x="144" y="509"/>
      <point x="144" y="509" type="curve"/>
      <point x="17" y="469" type="line"/>
      <point x="17" y="469"/>
      <point x="72" y="418"/>
      <point x="72" y="260" type="curve" smooth="yes"/>
      <point x="72" y="0" type="line"/>
      <point x="230" y="0" type="line"/>
      <point x="230" y="255" type="line" smooth="yes"/>
      <point x="230" y="327"/>
      <point x="279" y="358"/>
    </contour>
  </outline>
</glyph>
<glyph name="v" format="1">
  <advance width="525"/>
  <unicode hex="0076"/>
  <outline>
    <contour>
      <point x="318" y="502" type="line"/>
      <point x="322" y="476"/>
      <point x="330" y="433"/>
      <point x="330" y="367" type="curve" smooth="yes"/>
      <point x="330" y="245"/>
      <point x="309" y="106"/>
      <point x="246" y="106" type="curve" smooth="yes"/>
      <point x="220" y="106"/>
      <point x="210" y="137"/>
      <point x="210" y="176" type="curve" smooth="yes"/>
      <point x="210" y="502" type="line"/>
      <point x="52" y="502" type="line"/>
      <point x="52" y="173" type="line" smooth="yes"/>
      <point x="52" y="65"/>
      <point x="105" y="-6"/>
      <point x="219" y="-6" type="curve" smooth="yes"/>
      <point x="402" y="-6"/>
      <point x="488" y="98"/>
      <point x="488" y="375" type="curve" smooth="yes"/>
      <point x="488" y="427"/>
      <point x="481" y="481"/>
      <point x="476" y="502" type="curve"/>
    </contour>
  </outline>
</glyph>
<glyph name="asciitilde" format="1">
  <advance width="542"/>
  <unicode hex="007E"/>
  <outline>
    <contour>
      <point x="183" y="406" type="curve" smooth="yes"/>
      <point x="91" y="406"/>
      <point x="42" y="310"/>
      <point x="42" y="310" type="curve"/>
      <point x="96" y="249" type="line"/>
      <point x="126" y="281"/>
      <point x="142" y="295"/>
      <point x="183" y="295" type="curve" smooth="yes"/>
      <point x="245" y="295"/>
      <point x="281" y="235"/>
      <point x="358" y="235" type="curve" smooth="yes"/>
      <point x="451" y="235"/>
      <point x="499" y="331"/>
      <point x="499" y="331" type="curve"/>
      <point x="445" y="392" type="line"/>
      <point x="416" y="360"/>
      <point x="399" y="346"/>
      <point x="358" y="346" type="curve" smooth="yes"/>
      <point x="297" y="346"/>
      <point x="261" y="406"/>
    </contour>
  </outline>
</glyph>
<glyph name="cent" format="1">
  <advance width="506"/>
  <unicode hex="00A2"/>
  <outline>
    <contour>
      <point x="361" y="-42" type="line"/>
      <point x="361" y="77" type="line"/>
      <point x="419" y="84"/>
      <point x="456" y="98"/>
      <point x="474" y="108" type="curve"/>
      <point x="440" y="197" type="line"/>
      <point x="422" y="190"/>
      <point x="398" y="182"/>
      <point x="361" y="178" type="curve"/>
      <point x="361" y="460" type="line"/>
      <point x="377" y="454"/>
      <point x="391" y="444"/>
      <point x="406" y="428" type="curve"/>
      <point x="478" y="499" type="line"/>
      <point x="446" y="539"/>
      <point x="405" y="558"/>
      <point x="361" y="566" type="curve"/>
      <point x="361" y="654" type="line"/>
      <point x="246" y="654" type="line"/>
      <point x="246" y="567" type="line"/>
      <point x="129" y="549"/>
      <point x="47" y="461"/>
      <point x="47" y="308" type="curve" smooth="yes"/>
      <point x="47" y="177"/>
      <point x="105" y="87"/>
      <point x="246" y="74" type="curve"/>
      <point x="246" y="-42" type="line"/>
    </contour>
    <contour>
      <point x="199" y="325" type="curve" smooth="yes"/>
      <point x="199" y="405"/>
      <point x="218" y="441"/>
      <point x="246" y="456" type="curve"/>
      <point x="246" y="192" type="line"/>
      <point x="217" y="210"/>
      <point x="199" y="248"/>
    </contour>
  </outline>
</glyph>
<glyph name="registered" format="1">
  <advance width="584"/>
  <unicode hex="00AE"/>
  <outline>
    <contour>
      <point x="52" y="454" type="curve" smooth="yes"/>
      <point x="52" y="314"/>
      <point x="149" y="214"/>
      <point x="290" y="214" type="curve" smooth="yes"/>
      <point x="429" y="214"/>
      <point x="531" y="314"/>
      <point x="531" y="454" type="curve" smooth="yes"/>
      <point x="531" y="594"/>
      <point x="434" y="693"/>
      <point x="294" y="693" type="curve" smooth="yes"/>
      <point x="154" y="693"/>
      <point x="52" y="593"/>
    </contour>
    <contour>
      <point x="125" y="457" type="curve" smooth="yes"/>
      <point x="125" y="557"/>
      <point x="194" y="627"/>
      <point x="290" y="627" type="curve" smooth="yes"/>
      <point x="389" y="627"/>
      <point x="457" y="548"/>
      <point x="457" y="449" type="curve" smooth="yes"/>
      <point x="457" y="349"/>
      <point x="388" y="279"/>
      <point x="290" y="279" type="curve" smooth="yes"/>
      <point x="194" y="279"/>
      <point x="125" y="358"/>
    </contour>
    <contour>
      <point x="284" y="581" type="curve" smooth="yes"/>
      <point x="251" y="581"/>
      <point x="211" y="580"/>
      <point x="201" y="580" type="curve"/>
      <point x="201" y="325" type="line"/>
      <point x="269" y="325" type="line"/>
      <point x="269" y="425" type="line"/>
      <point x="274" y="425" type="line" smooth="yes"/>
      <point x="300" y="424"/>
      <point x="306" y="401"/>
      <point x="337" y="324" type="curve"/>
      <point x="402" y="347" type="line"/>
      <point x="376" y="420"/>
      <point x="368" y="443"/>
      <point x="347" y="452" type="curve"/>
      <point x="371" y="466"/>
      <point x="383" y="485"/>
      <point x="383" y="511" type="curve" smooth="yes"/>
      <point x="383" y="562"/>
      <point x="347" y="581"/>
    </contour>
    <contour>
      <point x="281" y="536" type="line" smooth="yes"/>
      <point x="304" y="536"/>
      <point x="313" y="522"/>
      <point x="313" y="504" type="curve" smooth="yes"/>
      <point x="313" y="486"/>
      <point x="306" y="476"/>
      <point x="286" y="473" type="curve" smooth="yes"/>
      <point x="281" y="472"/>
      <point x="274" y="471"/>
      <point x="269" y="471" type="curve"/>
      <point x="269" y="536" type="line"/>
    </contour>
  </outline>
</glyph>
<glyph name="uni00B3" format="1">
  <advance width="333"/>
  <unicode hex="00B3"/>
  <outline>
    <contour>
      <point x="172" y="693" type="curve" smooth="yes"/>
      <point x="116" y="693"/>
      <point x="62" y="675"/>
      <point x="29" y="657" type="curve"/>
      <point x="71" y="572" type="line"/>
      <point x="106" y="590"/>
      <point x="128" y="596"/>
      <point x="145" y="596" type="curve" smooth="yes"/>
      <point x="155" y="596"/>
      <point x="161" y="590"/>
      <point x="161" y="580" type="curve" smooth="yes"/>
      <point x="161" y="554"/>
      <point x="119" y="549"/>
      <point x="87" y="540" type="curve"/>
      <point x="117" y="467" type="line"/>
      <point x="117" y="467"/>
      <point x="139" y="473"/>
      <point x="160" y="473" type="curve" smooth="yes"/>
      <point x="176" y="473"/>
      <point x="185" y="461"/>
      <point x="185" y="445" type="curve" smooth="yes"/>
      <point x="185" y="425"/>
      <point x="175" y="413"/>
      <point x="151" y="413" type="curve" smooth="yes"/>
      <point x="112" y="413"/>
      <point x="66" y="440"/>
      <point x="66" y="440" type="curve"/>
      <point x="33" y="359" type="line"/>
      <point x="71" y="337"/>
      <point x="121" y="321"/>
      <point x="160" y="321" type="curve" smooth="yes"/>
      <point x="267" y="321"/>
      <point x="303" y="381"/>
      <point x="303" y="442" type="curve" smooth="yes"/>
      <point x="303" y="489"/>
      <point x="273" y="517"/>
      <point x="232" y="530" type="curve"/>
      <point x="260" y="544"/>
      <point x="288" y="566"/>
      <point x="288" y="607" type="curve" smooth="yes"/>
      <point x="288" y="665"/>
      <point x="240" y="693"/>
    </contour>
  </outline>
</glyph>
<glyph name="cedilla" format="1">
  <advance width="492"/>
  <unicode hex="00B8"/>
  <outline>
    <contour>
      <point x="238" y="0" type="move" name="_bottom"/>
    </contour>
    <contour>
      <point x="178" y="15" type="line"/>
      <point x="152" y="-87" type="line"/>
      <point x="194" y="-87"/>
      <point x="246" y="-100"/>
      <point x="246" y="-127" type="curve" smooth="yes"/>
      <point x="246" y="-143"/>
      <point x="232" y="-151"/>
      <point x="201" y="-151" type="curve" smooth="yes"/>
      <point x="180" y="-151"/>
      <point x="153" y="-145"/>
      <point x="135" y="-137" type="curve"/>
      <point x="112" y="-212" type="line"/>
      <point x="142" y="-226"/>
      <point x="185" y="-236"/>
      <point x="227" y="-236" type="curve" smooth="yes"/>
      <point x="298" y="-236"/>
      <point x="358" y="-204"/>
      <point x="358" y="-126" type="curve" smooth="yes"/>
      <point x="358" y="-70"/>
      <point x="317" y="-42"/>
      <point x="265" y="-37" type="curve"/>
      <point x="277" y="15" type="line"/>
    </contour>
  </outline>
</glyph>
<glyph name="onequarter" format="1">
  <advance width="777"/>
  <unicode hex="00BC"/>
  <outline>
    <contour>
      <point x="169" y="-8" type="line"/>
      <point x="301" y="-8" type="line"/>
      <point x="583" y="594" type="line"/>
      <point x="450" y="594" type="line"/>
    </contour>
    <contour>
      <point x="142" y="594" type="line"/>
      <point x="104" y="559"/>
      <point x="33" y="530"/>
      <point x="1" y="519" type="curve"/>
      <point x="47" y="432" type="line"/>
      <point x="76" y="441"/>
      <point x="100" y="456"/>
      <point x="121" y="476" type="curve"/>
      <point x="121" y="238" type="line"/>
      <point x="244" y="238" type="line"/>
      <point x="244" y="594" type="line"/>
    </contour>
    <contour>
      <point x="713" y="268" type="line"/>
      <point x="606" y="248" type="line"/>
      <point x="606" y="156" type="line"/>
      <point x="558" y="156" type="line"/>
      <point x="630" y="358" type="line"/>
      <point x="521" y="358" type="line"/>
      <point x="442" y="133" type="line"/>
      <point x="442" y="70" type="line"/>
      <point x="606" y="70" type="line"/>
      <point x="606" y="0" type="line"/>
      <point x="713" y="0" type="line"/>
      <point x="713" y="70" type="line"/>
      <point x="755" y="70" type="line"/>
      <point x="765" y="156" type="line"/>
      <point x="713" y="156" type="line"/>
    </contour>
  </outline>
</glyph>
<glyph name="questiondown" format="1">
  <advance width="444"/>
  <unicode hex="00BF"/>
  <outline>
    <contour>
      <point x="230" y="-192" type="curve" smooth="yes"/>
      <point x="318" y="-192"/>
      <point x="376" y="-168"/>
      <point x="433" y="-142" type="curve"/>
      <point x="384" y="-42" type="line"/>
      <point x="326" y="-69"/>
      <point x="303" y="-80"/>
      <point x="269" y="-80" type="curve" smooth="yes"/>
      <point x="236" y="-80"/>
      <point x="217" y="-53"/>
      <point x="217" y="-28" type="curve" smooth="yes"/>
      <point x="217" y="45"/>
      <point x="352" y="131"/>
      <point x="352" y="264" type="curve"/>
      <point x="229" y="297" type="line"/>
      <point x="212" y="248"/>
      <point x="185" y="212"/>
      <point x="148" y="166" type="curve" smooth="yes"/>
      <point x="99" y="106"/>
      <point x="40" y="34"/>
      <point x="40" y="-43" type="curve" smooth="yes"/>
      <point x="40" y="-141"/>
      <point x="113" y="-192"/>
    </contour>
    <contour>
      <point x="288" y="326" type="curve" smooth="yes"/>
      <point x="346" y="326"/>
      <point x="377" y="366"/>
      <point x="377" y="418" type="curve" smooth="yes"/>
      <point x="377" y="465"/>
      <point x="346" y="505"/>
      <point x="290" y="505" type="curve" smooth="yes"/>
      <point x="232" y="505"/>
      <point x="201" y="465"/>
      <point x="201" y="414" type="curve" smooth="yes"/>
      <point x="201" y="363"/>
      <point x="232" y="326"/>
    </contour>
  </outline>
</glyph>
<glyph name="Acircumflex" format="1">
  <advance width="649"/>
  <unicode hex="00C2"/>
  <outline>
    <contour>
      <point x="-1" y="0" type="line"/>
      <point x="163" y="0" type="line"/>
      <point x="215" y="163" type="line"/>
      <point x="434" y="163" type="line"/>
      <point x="484" y="0" type="line"/>
      <point x="651" y="0" type="line"/>
      <point x="403" y="677" type="line"/>
      <point x="256" y="677" type="line"/>
    </contour>
    <contour>
      <point x="253" y="285" type="line"/>
      <point x="280" y="362"/>
      <point x="310" y="457"/>
      <point x="325" y="508" type="curve"/>
      <point x="340" y="459"/>
      <point x="370" y="363"/>
      <point x="397" y="285" type="curve"/>
    </contour>
    <contour>
      <point x="185" y="725" type="line"/>
      <point x="213" y="737"/>
      <point x="268" y="760"/>
      <point x="329" y="803" type="curve"/>
      <point x="390" y="760"/>
      <point x="446" y="736"/>
      <point x="472" y="725" type="curve"/>
      <point x="534" y="800" type="line"/>
      <point x="329" y="976" type="line"/>
      <point x="124" y="800" type="line"/>
    </contour>
  </outline>
</glyph>
<glyph name="Aring" format="1">
  <advance width="649"/>
  <unicode hex="00C5"/>
  <outline>
    <contour>
      <point x="215" y="719" type="curve" smooth="yes"/>
      <point x="215" y="688"/>
      <point x="224" y="661"/>
      <point x="242" y="642" type="curve"/>
      <point x="-1" y="0" type="line"/>
      <point x="163" y="0" type="line"/>
      <point x="215" y="163" type="line"/>
      <point x="434" y="163" type="line"/>
      <point x="484" y="0" type="line"/>
      <point x="651" y="0" type="line"/>
      <point x="412" y="652" type="line"/>
      <point x="424" y="670"/>
      <point x="432" y="693"/>
      <point x="432" y="719" type="curve" smooth="yes"/>
      <point x="432" y="782"/>
      <point x="391" y="829"/>
      <point x="325" y="829" type="curve" smooth="yes"/>
      <point x="262" y="829"/>
      <point x="215" y="786"/>
    </contour>
    <contour>
      <point x="253" y="285" type="line"/>
      <point x="280" y="362"/>
      <point x="310" y="457"/>
      <point x="325" y="508" type="curve"/>
      <point x="340" y="459"/>
      <point x="370" y="363"/>
      <point x="397" y="285" type="curve"/>
    </contour>
    <contour>
      <point x="289" y="720" type="curve" smooth="yes"/>
      <point x="289" y="746"/>
      <point x="302" y="760"/>
      <point x="323" y="760" type="curve" smooth="yes"/>
      <point x="345" y="760"/>
      <point x="358" y="744"/>
      <point x="358" y="719" type="curve" smooth="yes"/>
      <point x="358" y="693"/>
      <point x="347" y="679"/>
      <point x="328" y="677" type="curve"/>
      <point x="319" y="677" type="line"/>
      <point x="302" y="679"/>
      <point x="289" y="693"/>
    </contour>
  </outline>
</glyph>
<glyph name="AE" format="1">
  <advance width="921"/>
  <unicode hex="00C6"/>
  <outline>
    <contour>
      <point x="460" y="0" type="line"/>
      <point x="904" y="0" type="line"/>
      <point x="904" y="121" type="line"/>
      <point x="624" y="121" type="line"/>
      <point x="624" y="292" type="line"/>
      <point x="826" y="292" type="line"/>
      <point x="845" y="411" type="line"/>
      <point x="624" y="411" type="line"/>
      <point x="624" y="556" type="line"/>
      <point x="890" y="556" type="line"/>
      <point x="890" y="677" type="line"/>
      <point x="395" y="677" type="line"/>
      <point x="-13" y="0" type="line"/>
      <point x="173" y="0" type="line"/>
      <point x="266" y="163" type="line"/>
      <point x="460" y="163" type="line"/>
    </contour>
    <contour>
      <point x="460" y="526" type="line"/>
      <point x="460" y="285" type="line"/>
      <point x="334" y="285" type="line"/>
    </contour>
  </outline>
</glyph>
<glyph name="Egrave" format="1">
  <advance width="524"/>
  <unicode hex="00C8"/>
  <outline>
    <contour>
      <point x="62" y="0" type="line"/>
      <point x="507" y="0" type="line"/>
      <point x="507" y="121" type="line"/>
      <point x="227" y="121" type="line"/>
      <point x="227" y="292" type="line"/>
      <point x="429" y="292" type="line"/>
      <point x="448" y="411" type="line"/>
      <point x="227" y="411" type="line"/>
      <point x="227" y="556" type="line"/>
      <point x="493" y="556" type="line"/>
      <point x="493" y="677" type="line"/>
      <point x="62" y="677" type="line"/>
    </contour>
    <contour>
      <point x="355" y="799" type="line"/>
      <point x="148" y="972" type="line"/>
      <point x="48" y="871" type="line"/>
      <point x="136" y="774"/>
      <point x="268" y="732"/>
      <point x="293" y="725" type="curve"/>
    </contour>
  </outline>
</glyph>
<glyph name="Igrave" format="1">
  <advance width="289"/>
  <unicode hex="00CC"/>
  <outline>
    <contour>
      <point x="62" y="0" type="line"/>
      <point x="227" y="0" type="line"/>
      <point x="227" y="677" type="line"/>
      <point x="62" y="677" type="line"/>
    </contour>
    <contour>
      <point x="205" y="799" type="line"/>
      <point x="-2" y="972" type="line"/>
      <point x="-102" y="871" type="line"/>
      <point x="-14" y="774"/>
      <point x="118" y="732"/>
      <point x="143" y="725" type="curve"/>
    </contour>
  </outline>
</glyph>
<glyph name="Eth" format="1">
  <advance width="647"/>
  <unicode hex="00D0"/>
  <outline>
    <contour>
      <point x="62" y="0" type="line"/>
      <point x="160" y="0"/>
      <point x="206" y="-2"/>
      <point x="282" y="-2" type="curve" smooth="yes"/>
      <point x="509" y="-2"/>
      <point x="611" y="126"/>
      <point x="611" y="333" type="curve" smooth="yes"/>
      <point x="611" y="535"/>
      <point x="511" y="679"/>
      <point x="285" y="679" type="curve" smooth="yes"/>
      <point x="211" y="679"/>
      <point x="81" y="677"/>
      <point x="62" y="677" type="curve"/>
      <point x="62" y="407" type="line"/>
      <point x="-8" y="407" type="line"/>
      <point x="-8" y="289" type="line"/>
      <point x="62" y="289" type="line"/>
    </contour>
    <contour>
      <point x="278" y="563" type="curve" smooth="yes"/>
      <point x="383" y="563"/>
      <point x="433" y="485"/>
      <point x="433" y="331" type="curve" smooth="yes"/>
      <point x="433" y="197"/>
      <point x="395" y="114"/>
      <point x="278" y="114" type="curve" smooth="yes"/>
      <point x="254" y="114"/>
      <point x="244" y="114"/>
      <point x="227" y="115" type="curve"/>
      <point x="227" y="289" type="line"/>
      <point x="339" y="289" type="line"/>
      <point x="339" y="407" type="line"/>
      <point x="227" y="407" type="line"/>
      <point x="227" y="562" type="line"/>
      <point x="248" y="562"/>
      <point x="256" y="563"/>
    </contour>
  </outline>
</glyph>
<glyph name="Oacute" format="1">
  <advance width="693"/>
  <unicode hex="00D3"/>
  <outline>
    <contour>
      <point x="353" y="686" type="curve" smooth="yes"/>
      <point x="139" y="686"/>
      <point x="37" y="539"/>
      <point x="37" y="330" type="curve" smooth="yes"/>
      <point x="37" y="118"/>
      <point x="129" y="-6"/>
      <point x="340" y="-6" type="curve" smooth="yes"/>
      <point x="553" y="-6"/>
      <point x="655" y="136"/>
      <point x="655" y="344" type="curve" smooth="yes"/>
      <point x="655" y="555"/>
      <point x="563" y="686"/>
    </contour>
    <contour>
      <point x="339" y="569" type="curve" smooth="yes"/>
      <point x="447" y="569"/>
      <point x="477" y="469"/>
      <point x="477" y="334" type="curve" smooth="yes"/>
      <point x="477" y="192"/>
      <point x="440" y="111"/>
      <point x="354" y="111" type="curve" smooth="yes"/>
      <point x="245" y="111"/>
      <point x="215" y="206"/>
      <point x="215" y="341" type="curve" smooth="yes"/>
      <point x="215" y="484"/>
      <point x="252" y="569"/>
    </contour>
    <contour>
      <point x="356" y="725" type="line"/>
      <point x="380" y="732"/>
      <point x="512" y="774"/>
      <point x="601" y="871" type="curve"/>
      <point x="501" y="972" type="line"/>
      <point x="294" y="799" type="line"/>
    </contour>
  </outline>
</glyph>
<glyph name="Otilde" format="1">
  <advance width="693"/>
  <unicode hex="00D5"/>
  <outline>
    <contour>
      <point x="353" y="686" type="curve" smooth="yes"/>
      <point x="139" y="686"/>
      <point x="37" y="539"/>
      <point x="37" y="330" type="curve" smooth="yes"/>
      <point x="37" y="118"/>
      <point x="129" y="-6"/>
      <point x="340" y="-6" type="curve" smooth="yes"/>
      <point x="553" y="-6"/>
      <point x="655" y="136"/>
      <point x="655" y="344" type="curve" smooth="yes"/>
      <point x="655" y="555"/>
      <point x="563" y="686"/>
    </contour>
    <contour>
      <point x="339" y="569" type="curve" smooth="yes"/>
      <point x="447" y="569"/>
      <point x="477" y="469"/>
      <point x="477" y="334" type="curve" smooth="yes"/>
      <point x="477" y="192"/>
      <point x="440" y="111"/>
      <point x="354" y="111" type="curve" smooth="yes"/>
      <point x="245" y="111"/>
      <point x="215" y="206"/>
      <point x="215" y="341" type="curve" smooth="yes"/>
      <point x="215" y="484"/>
      <point x="252" y="569"/>
    </contour>
    <contour>
      <point x="184" y="757" type="line"/>
      <point x="184" y="757"/>
      <point x="223" y="771"/>
      <point x="272" y="771" type="curve" smooth="yes"/>
      <point x="324" y="771"/>
      <point x="379" y="751"/>
      <point x="432" y="751" type="curve" smooth="yes"/>
      <point x="481" y="751"/>
      <point x="512" y="774"/>
      <point x="512" y="774" type="curve"/>
      <point x="512" y="874" type="line"/>
      <point x="512" y="874"/>
      <point x="481" y="860"/>
      <point x="432" y="860" type="curve" smooth="yes"/>
      <point x="379" y="860"/>
      <point x="324" y="880"/>
      <point x="272" y="880" type="curve" smooth="yes"/>
      <point x="223" y="880"/>
      <point x="184" y="857"/>
      <point x="184" y="857" type="curve"/>
    </contour>
  </outline>
</glyph>
<glyph name="multiply" format="1">
  <advance width="523"/>
  <unicode hex="00D7"/>
  <outline>
    <contour>
      <point x="56" y="418" type="line"/>
      <point x="174" y="299" type="line"/>
      <point x="52" y="177" type="line"/>
      <point x="142" y="87" type="line"/>
      <point x="265" y="209" type="line"/>
      <point x="384" y="90" type="line"/>
      <point x="469" y="174" type="line"/>
      <point x="349" y="294" type="line"/>
      <point x="470" y="415" type="line"/>
      <point x="381" y="505" type="line"/>
      <point x="259" y="384" type="line"/>
      <point x="141" y="502" type="line"/>
    </contour>
  </outline>
</glyph>
<glyph name="Udieresis" format="1">
  <advance width="668"/>
  <unicode hex="00DC"/>
  <outline>
    <contour>
      <point x="52" y="677" type="line"/>
      <point x="52" y="265" type="line" smooth="yes"/>
      <point x="52" y="123"/>
      <point x="123" y="-6"/>
      <point x="327" y="-6" type="curve" smooth="yes"/>
      <point x="540" y="-6"/>
      <point x="616" y="122"/>
      <point x="616" y="265" type="curve" smooth="yes"/>
      <point x="616" y="677" type="line"/>
      <point x="451" y="677" type="line"/>
      <point x="451" y="274" type="line" smooth="yes"/>
      <point x="451" y="173"/>
      <point x="411" y="121"/>
      <point x="340" y="121" type="curve" smooth="yes"/>
      <point x="270" y="121"/>
      <point x="216" y="158"/>
      <point x="216" y="274" type="curve" smooth="yes"/>
      <point x="216" y="677" type="line"/>
    </contour>
    <contour>
      <point x="300" y="822" type="curve" smooth="yes"/>
      <point x="300" y="862"/>
      <point x="274" y="896"/>
      <point x="228" y="896" type="curve" smooth="yes"/>
      <point x="178" y="896"/>
      <point x="153" y="862"/>
      <point x="153" y="818" type="curve" smooth="yes"/>
      <point x="153" y="778"/>
      <point x="178" y="745"/>
      <point x="225" y="745" type="curve" smooth="yes"/>
      <point x="274" y="745"/>
      <point x="300" y="778"/>
    </contour>
    <contour>
      <point x="515" y="822" type="curve" smooth="yes"/>
      <point x="515" y="862"/>
      <point x="489" y="896"/>
      <point x="443" y="896" type="curve" smooth="yes"/>
      <point x="393" y="896"/>
      <point x="368" y="862"/>
      <point x="368" y="818" type="curve" smooth="yes"/>
      <point x="368" y="778"/>
      <point x="393" y="745"/>
      <point x="440" y="745" type="curve" smooth="yes"/>
      <point x="489" y="745"/>
      <point x="515" y="778"/>
    </contour>
  </outline>
</glyph>
<glyph name="Thorn" format="1">
  <advance width="544"/>
  <unicode hex="00DE"/>
  <outline>
    <contour>
      <point x="62" y="0" type="line"/>
      <point x="227" y="0" type="line"/>
      <point x="227" y="139" type="line"/>
      <point x="257" y="139" type="line" smooth="yes"/>
      <point x="424" y="139"/>
      <point x="527" y="211"/>
      <point x="527" y="353" type="curve" smooth="yes"/>
      <point x="527" y="483"/>
      <point x="440" y="559"/>
      <point x="270" y="559" type="curve" smooth="yes"/>
      <point x="227" y="559" type="line"/>
      <point x="227" y="677" type="line"/>
      <point x="62" y="677" type="line"/>
    </contour>
    <contour>
      <point x="227" y="443" type="line"/>
      <point x="235" y="444"/>
      <point x="247" y="445"/>
      <point x="264" y="445" type="curve" smooth="yes"/>
      <point x="327" y="444"/>
      <point x="349" y="392"/>
      <point x="349" y="345" type="curve" smooth="yes"/>
      <point x="349" y="287"/>
      <point x="314" y="253"/>
      <point x="269" y="253" type="curve" smooth="yes"/>
      <point x="227" y="253" type="line"/>
    </contour>
  </outline>
</glyph>
<glyph name="ecircumflex" format="1">
  <advance width="479"/>
  <unicode hex="00EA"/>
  <outline>
    <contour>
      <point x="27" y="237" type="curve" smooth="yes"/>
      <point x="27" y="90"/>
      <point x="92" y="-9"/>
      <point x="255" y="-9" type="curve" smooth="yes"/>
      <point x="361" y="-9"/>
      <point x="452" y="36"/>
      <point x="452" y="36" type="curve"/>
      <point x="422" y="140" type="line"/>
      <point x="422" y="140"/>
      <point x="338" y="108"/>
      <point x="280" y="108" type="curve" smooth="yes"/>
      <point x="230" y="108"/>
      <point x="207" y="135"/>
      <point x="198" y="175" type="curve"/>
      <point x="357" y="188"/>
      <point x="456" y="264"/>
      <point x="456" y="361" type="curve" smooth="yes"/>
      <point x="456" y="447"/>
      <point x="406" y="512"/>
      <point x="281" y="512" type="curve" smooth="yes"/>
      <point x="138" y="512"/>
      <point x="27" y="416"/>
    </contour>
    <contour>
      <point x="261" y="399" type="curve" smooth="yes"/>
      <point x="283" y="399"/>
      <point x="299" y="382"/>
      <point x="299" y="357" type="curve" smooth="yes"/>
      <point x="299" y="325"/>
      <point x="269" y="278"/>
      <point x="190" y="276" type="curve"/>
      <point x="192" y="333"/>
      <point x="210" y="399"/>
    </contour>
    <contour>
      <point x="126" y="557" type="line"/>
      <point x="154" y="571"/>
      <point x="202" y="595"/>
      <point x="260" y="639" type="curve"/>
      <point x="318" y="595"/>
      <point x="367" y="570"/>
      <point x="393" y="557" type="curve"/>
      <point x="454" y="631" type="line"/>
      <point x="260" y="828" type="line"/>
      <point x="65" y="631" type="line"/>
    </contour>
  </outline>
</glyph>
<glyph name="ograve" format="1">
  <advance width="520"/>
  <unicode hex="00F2"/>
  <outline>
    <contour>
      <point x="264" y="512" type="curve" smooth="yes"/>
      <point x="105" y="512"/>
      <point x="27" y="397"/>
      <point x="27" y="245" type="curve" smooth="yes"/>
      <point x="27" y="87"/>
      <point x="96" y="-10"/>
      <point x="256" y="-10" type="curve" smooth="yes"/>
      <point x="414" y="-10"/>
      <point x="492" y="105"/>
      <point x="492" y="256" type="curve" smooth="yes"/>
      <point x="492" y="416"/>
      <point x="423" y="512"/>
    </contour>
    <contour>
      <point x="255" y="393" type="curve" smooth="yes"/>
      <point x="312" y="393"/>
      <point x="325" y="328"/>
      <point x="325" y="246" type="curve" smooth="yes"/>
      <point x="325" y="171"/>
      <point x="314" y="109"/>
      <point x="265" y="109" type="curve" smooth="yes"/>
      <point x="208" y="109"/>
      <point x="195" y="175"/>
      <point x="195" y="256" type="curve" smooth="yes"/>
      <point x="195" y="333"/>
      <point x="206" y="393"/>
    </contour>
    <contour>
      <point x="332" y="628" type="line"/>
      <point x="149" y="842" type="line"/>
      <point x="45" y="743" type="line"/>
      <point x="129" y="639"/>
      <point x="254" y="565"/>
      <point x="265" y="557" type="curve"/>
    </contour>
  </outline>
</glyph>
<glyph name="otilde" format="1">
  <advance width="520"/>
  <unicode hex="00F5"/>
  <outline>
    <contour>
      <point x="264" y="512" type="curve" smooth="yes"/>
      <point x="105" y="512"/>
      <point x="27" y="397"/>
      <point x="27" y="245" type="curve" smooth="yes"/>
      <point x="27" y="87"/>
      <point x="96" y="-10"/>
      <point x="256" y="-10" type="curve" smooth="yes"/>
      <point x="414" y="-10"/>
      <point x="492" y="105"/>
      <point x="492" y="256" type="curve" smooth="yes"/>
      <point x="492" y="416"/>
      <point x="423" y="512"/>
    </contour>
    <contour>
      <point x="255" y="393" type="curve" smooth="yes"/>
      <point x="312" y="393"/>
      <point x="325" y="328"/>
      <point x="325" y="246" type="curve" smooth="yes"/>
      <point x="325" y="171"/>
      <point x="314" y="109"/>
      <point x="265" y="109" type="curve" smooth="yes"/>
      <point x="208" y="109"/>
      <point x="195" y="175"/>
      <point x="195" y="256" type="curve" smooth="yes"/>
      <point x="195" y="333"/>
      <point x="206" y="393"/>
    </contour>
    <contour>
      <point x="99" y="586" type="line"/>
      <point x="99" y="586"/>
      <point x="138" y="600"/>
      <point x="187" y="600" type="curve" smooth="yes"/>
      <point x="239" y="600"/>
      <point x="294" y="580"/>
      <point x="347" y="580" type="curve" smooth="yes"/>
      <point x="396" y="580"/>
      <point x="427" y="603"/>
      <point x="427" y="603" type="curve"/>
      <point x="427" y="703" type="line"/>
      <point x="427" y="703"/>
      <point x="396" y="689"/>
      <point x="347" y="689" type="curve" smooth="yes"/>
      <point x="294" y="689"/>
      <point x="239" y="709"/>
      <point x="187" y="709" type="curve" smooth="yes"/>
      <point x="138" y="709"/>
      <point x="99" y="686"/>
      <point x="99" y="686" type="curve"/>
    </contour>
  </outline>
</glyph>
<glyph name="odieresis" format="1">
  <advance width="520"/>
  <unicode hex="00F6"/>
  <outline>
    <contour>
      <point x="264" y="512" type="curve" smooth="yes"/>
      <point x="105" y="512"/>
      <point x="27" y="397"/>
      <point x="27" y="245" type="curve" smooth="yes"/>
      <point x="27" y="87"/>
      <point x="96" y="-10"/>
      <point x="256" y="-10" type="curve" smooth="yes"/>
      <point x="414" y="-10"/>
      <point x="492" y="105"/>
      <point x="492" y="256" type="curve" smooth="yes"/>
      <point x="492" y="416"/>
      <point x="423" y="512"/>
    </contour>
    <contour>
      <point x="255" y="393" type="curve" smooth="yes"/>
      <point x="312" y="393"/>
      <point x="325" y="328"/>
      <point x="325" y="246" type="curve" smooth="yes"/>
      <point x="325" y="171"/>
      <point x="314" y="109"/>
      <point x="265" y="109" type="curve" smooth="yes"/>
      <point x="208" y="109"/>
      <point x="195" y="175"/>
      <point x="195" y="256" type="curve" smooth="yes"/>
      <point x="195" y="333"/>
      <point x="206" y="393"/>
    </contour>
    <contour>
      <point x="231" y="667" type="curve" smooth="yes"/>
      <point x="231" y="707"/>
      <point x="205" y="741"/>
      <point x="159" y="741" type="curve" smooth="yes"/>
      <point x="109" y="741"/>
      <point x="84" y="707"/>
      <point x="84" y="663" type="curve" smooth="yes"/>
      <point x="84" y="623"/>
      <point x="109" y="590"/>
      <point x="156" y="590" type="curve" smooth="yes"/>
      <point x="205" y="590"/>
      <point x="231" y="623"/>
    </contour>
    <contour>
      <point x="446" y="667" type="curve" smooth="yes"/>
      <point x="446" y="707"/>
      <point x="420" y="741"/>
      <point x="374" y="741" type="curve" smooth="yes"/>
      <point x="324" y="741"/>
      <point x="299" y="707"/>
      <point x="299" y="663" type="curve" smooth="yes"/>
      <point x="299" y="623"/>
      <point x="324" y="590"/>
      <point x="371" y="590" type="curve" smooth="yes"/>
      <point x="420" y="590"/>
      <point x="446" y="623"/>
    </contour>
  </outline>
</glyph>
<glyph name="divide" format="1">
  <advance width="505"/>
  <unicode hex="00F7"/>
  <outline>
    <contour>
      <point x="318" y="466" type="curve" smooth="yes"/>
      <point x="318" y="507"/>
      <point x="294" y="535"/>
      <point x="251" y="535" type="curve" smooth="yes"/>
      <point x="204" y="535"/>
      <point x="180" y="504"/>
      <point x="180" y="463" type="curve" smooth="yes"/>
      <point x="180" y="425"/>
      <point x="204" y="394"/>
      <point x="247" y="394" type="curve" smooth="yes"/>
      <point x="294" y="394"/>
      <point x="318" y="425"/>
    </contour>
    <contour>
      <point x="52" y="242" type="line"/>
      <point x="452" y="242" type="line"/>
      <point x="452" y="358" type="line"/>
      <point x="52" y="358" type="line"/>
    </contour>
    <contour>
      <point x="318" y="136" type="curve" smooth="yes"/>
      <point x="318" y="177"/>
      <point x="294" y="206"/>
      <point x="251" y="206" type="curve" smooth="yes"/>
      <point x="204" y="206"/>
      <point x="180" y="174"/>
      <point x="180" y="133" type="curve" smooth="yes"/>
      <point x="180" y="96"/>
      <point x="204" y="64"/>
      <point x="247" y="64" type="curve" smooth="yes"/>
      <point x="294" y="64"/>
      <point x="318" y="96"/>
    </contour>
  </outline>
</glyph>
<glyph name="apostrophe" format="1">
  <advance width="216"/>
  <unicode hex="02BC"/>
  <outline>
    <contour>
      <point x="70" y="700" type="curve"/>
      <point x="73" y="678"/>
      <point x="90" y="641"/>
      <point x="90" y="600" type="curve" smooth="yes"/>
      <point x="90" y="563"/>
      <point x="77" y="522"/>
      <point x="29" y="487" type="curve"/>
      <point x="87" y="408" type="line"/>
      <point x="196" y="463"/>
      <point x="243" y="548"/>
      <point x="243" y="633" type="curve" smooth="yes"/>
      <point x="243" y="682"/>
      <point x="222" y="724"/>
      <point x="160" y="724" type="curve" smooth="yes"/>
      <point x="98" y="724"/>
      <point x="72" y="702"/>
    </contour>
  </outline>
</glyph>
<glyph name="circumflex" format="1">
  <advance width="492"/>
  <unicode hex="02C6"/>
  <outline>
    <contour>
      <point x="250" y="506" type="move" name="_top"/>
    </contour>
    <contour>
      <point x="103" y="557" type="line"/>
      <point x="131" y="571"/>
      <point x="179" y="595"/>
      <point x="237" y="639" type="curve"/>
      <point x="295" y="595"/>
      <point x="344" y="570"/>
      <point x="370" y="557" type="curve"/>
      <point x="431" y="631" type="line"/>
      <point x="237" y="828" type="line"/>
      <point x="42" y="631" type="line"/>
    </contour>
  </outline>
</glyph>
<glyph name="tilde" format="1">
  <advance width="492"/>
  <unicode hex="02DC"/>
  <outline>
    <contour>
      <point x="255" y="506" type="move" name="_top"/>
    </contour>
    <contour>
      <point x="257" y="506" type="move" name="_topUC"/>
    </contour>
    <contour>
      <point x="74" y="586" type="line"/>
      <point x="74" y="586"/>
      <point x="113" y="600"/>
      <point x="162" y="600" type="curve" smooth="yes"/>
      <point x="214" y="600"/>
      <point x="269" y="580"/>
      <point x="322" y="580" type="curve" smooth="yes"/>
      <point x="371" y="580"/>
      <point x="402" y="603"/>
      <point x="402" y="603" type="curve"/>
      <point x="402" y="703" type="line"/>
      <point x="402" y="703"/>
      <point x="371" y="689"/>
      <point x="322" y="689" type="curve" smooth="yes"/>
      <point x="269" y="689"/>
      <point x="214" y="709"/>
      <point x="162" y="709" type="curve" smooth="yes"/>
      <point x="113" y="709"/>
      <point x="74" y="686"/>
      <point x="74" y="686" type="curve"/>
    </contour>
  </outline>
</glyph>
<glyph name="guilsinglright" format="1">
  <advance width="365"/>
  <unicode hex="203A"/>
  <outline>
    <contour>
      <point x="27" y="408" type="line"/>
      <point x="157" y="245" type="line"/>
      <point x="27" y="82" type="line"/>
      <point x="93" y="7" type="line"/>
      <point x="93" y="7"/>
      <point x="241" y="133"/>
      <point x="323" y="245" type="curve"/>
      <point x="241" y="356"/>
      <point x="93" y="482"/>
      <point x="93" y="482" type="curve"/>
    </contour>
  </outline>
</glyph>
<glyph name="Euro" format="1">
  <advance width="620"/>
  <unicode hex="20AC"/>
  <outline>
    <contour>
      <point x="39" y="437" type="line"/>
      <point x="39" y="320" type="line"/>
      <point x="89" y="320" type="line"/>
      <point x="89" y="316"/>
      <point x="88" y="307"/>
      <point x="88" y="300" type="curve" smooth="yes"/>
      <point x="88" y="292"/>
      <point x="89" y="283"/>
      <point x="89" y="279" type="curve"/>
      <point x="39" y="279" type="line"/>
      <point x="39" y="162" type="line"/>
      <point x="111" y="162" type="line"/>
      <point x="149" y="53"/>
      <point x="237" y="-6"/>
      <point x="381" y="-6" type="curve" smooth="yes"/>
      <point x="458" y="-6"/>
      <point x="499" y="7"/>
      <point x="540" y="18" type="curve"/>
      <point x="504" y="130" type="line"/>
      <point x="467" y="119"/>
      <point x="444" y="110"/>
      <point x="397" y="110" type="curve" smooth="yes"/>
      <point x="353" y="110"/>
      <point x="322" y="129"/>
      <point x="302" y="162" type="curve"/>
      <point x="446" y="162" type="line"/>
      <point x="464" y="279" type="line"/>
      <point x="267" y="279" type="line"/>
      <point x="265" y="287"/>
      <point x="264" y="294"/>
      <point x="264" y="301" type="curve" smooth="yes"/>
      <point x="264" y="308"/>
      <point x="265" y="317"/>
      <point x="265" y="320" type="curve"/>
      <point x="468" y="320" type="line"/>
      <point x="486" y="437" type="line"/>
      <point x="280" y="437" type="line"/>
      <point x="298" y="496"/>
      <point x="333" y="529"/>
      <point x="384" y="529" type="curve" smooth="yes"/>
      <point x="418" y="529"/>
      <point x="451" y="518"/>
      <point x="488" y="473" type="curve"/>
      <point x="577" y="563" type="line"/>
      <point x="539" y="605"/>
      <point x="489" y="645"/>
      <point x="383" y="645" type="curve" smooth="yes"/>
      <point x="234" y="645"/>
      <point x="141" y="563"/>
      <point x="105" y="437" type="curve"/>
    </contour>
  </outline>
</glyph>
<glyph name="minus" format="1">
  <advance width="443"/>
  <unicode hex="2212"/>
  <outline>
    <contour>
      <point x="30" y="242" type="line"/>
      <point x="394" y="242" type="line"/>
      <point x="394" y="358" type="line"/>
      <point x="30" y="358" type="line"/>
    </contour>
  </outline>
</glyph>
<glyph name="uni2215" format="1">
  <advance width="447"/>
  <unicode hex="2215"/>
  <outline>
    <contour>
      <point x="-18" y="-126" type="line"/>
      <point x="147" y="-126" type="line"/>
      <point x="465" y="729" type="line"/>
      <point x="300" y="729" type="line"/>
    </contour>
  </outline>
</glyph>
